<svg width="60" height="60" viewBox="0 0 60 60" fill="none" xmlns="http://www.w3.org/2000/svg">
<path d="M24.5296 29.7524L40.0809 45.2999C40.4329 45.6519 40.6307 46.1295 40.6307 46.6274C40.6307 47.1253 40.4329 47.6028 40.0809 47.9549C39.7288 48.3069 39.2513 48.5047 38.7534 48.5047C38.2554 48.5047 37.7779 48.3069 37.4259 47.9549L20.5509 31.0799C20.3762 30.9057 20.2377 30.6988 20.1432 30.471C20.0487 30.2432 20 29.999 20 29.7524C20 29.5057 20.0487 29.2615 20.1432 29.0337C20.2377 28.8059 20.3762 28.599 20.5509 28.4249L37.4259 11.5499C37.7779 11.1978 38.2554 11 38.7534 11C39.2513 11 39.7288 11.1978 40.0809 11.5499C40.4329 11.9019 40.6307 12.3795 40.6307 12.8774C40.6307 13.3753 40.4329 13.8528 40.0809 14.2049L24.5296 29.7524Z" fill="white"/>
</svg>
