<svg width="60" height="60" viewBox="0 0 60 60" fill="none" xmlns="http://www.w3.org/2000/svg">
<path d="M13.125 28.125H50.625C51.1223 28.125 51.5992 28.3225 51.9508 28.6742C52.3025 29.0258 52.5 29.5027 52.5 30C52.5 30.4973 52.3025 30.9742 51.9508 31.3258C51.5992 31.6775 51.1223 31.875 50.625 31.875H13.125C12.6277 31.875 12.1508 31.6775 11.7992 31.3258C11.4475 30.9742 11.25 30.4973 11.25 30C11.25 29.5027 11.4475 29.0258 11.7992 28.6742C12.1508 28.3225 12.6277 28.125 13.125 28.125Z" fill="white"/>
<path d="M13.9013 30L29.4526 45.5475C29.8046 45.8996 30.0024 46.3771 30.0024 46.875C30.0024 47.373 29.8046 47.8505 29.4526 48.2025C29.1005 48.5546 28.623 48.7524 28.1251 48.7524C27.6271 48.7524 27.1496 48.5546 26.7976 48.2025L9.92256 31.3275C9.74794 31.1534 9.60941 30.9465 9.51488 30.7187C9.42036 30.4909 9.3717 30.2467 9.3717 30C9.3717 29.7534 9.42036 29.5092 9.51488 29.2814C9.60941 29.0536 9.74794 28.8467 9.92256 28.6725L26.7976 11.7975C27.1496 11.4455 27.6271 11.2477 28.1251 11.2477C28.623 11.2477 29.1005 11.4455 29.4526 11.7975C29.8046 12.1496 30.0024 12.6271 30.0024 13.125C30.0024 13.623 29.8046 14.1005 29.4526 14.4525L13.9013 30Z" fill="white"/>
</svg>
