<svg width="41" height="40" viewBox="0 0 41 40" fill="none" xmlns="http://www.w3.org/2000/svg">
<path d="M0.988281 4.91803V34.0987C0.988281 36.853 3.15578 39.0205 5.91016 39.0205H35.0908C36.4389 39.0205 37.727 38.3755 38.5483 37.5562C39.4277 36.6768 40.0127 35.563 40.0127 34.0987V4.91803C40.0127 2.16365 37.8452 -0.00384521 35.0908 -0.00384521H5.91016C4.44578 -0.00384521 3.33203 0.58303 2.45266 1.46053C1.63141 2.28178 0.988281 3.56991 0.988281 4.91803ZM6.26266 8.78428C6.26266 6.90928 7.78703 5.26866 9.66203 5.26866C11.5952 5.26866 13.1777 6.90928 13.1777 8.78428C13.1777 10.7174 11.5952 12.2418 9.66203 12.2418C7.78703 12.2418 6.26266 10.7174 6.26266 8.78428ZM15.6958 32.8668V14.9962C15.6958 14.5855 16.1064 14.2349 16.3989 14.2349H21.3789C22.082 14.2349 22.082 15.0562 22.082 15.583C23.4883 14.1768 25.3052 13.8243 27.1802 13.8243C31.7514 13.8243 34.6802 15.9918 34.6802 20.7974V32.8687C34.6802 33.2793 34.3277 33.6299 33.977 33.6299H28.8208C28.4102 33.6299 28.1177 33.2193 28.1177 32.8687V21.9693C28.1177 20.1524 27.5908 19.1568 25.5395 19.1568C22.9614 19.1568 22.3164 20.8555 22.3164 23.1412V32.8687C22.3164 33.2793 21.9058 33.6299 21.4952 33.6299H16.397C16.1045 33.6299 15.6939 33.2193 15.6939 32.8687L15.6958 32.8668ZM6.37891 32.8668V14.9962C6.37891 14.5855 6.78953 14.2349 7.08203 14.2349H12.1802C12.6489 14.2349 12.9414 14.5274 12.9414 14.9962V32.8668C12.9414 33.2774 12.5889 33.628 12.1802 33.628H7.08203C6.72953 33.628 6.37891 33.2174 6.37891 32.8668Z" fill="white"/>
</svg>
