<svg width="60" height="60" viewBox="0 0 60 60" fill="none" xmlns="http://www.w3.org/2000/svg">
<path fill-rule="evenodd" clip-rule="evenodd" d="M49.4569 9.79562C50.3282 9.58912 50.9357 9.3861 51.4334 9.17287C52.1309 8.87402 52.7092 8.51602 53.6229 7.91309C54.3907 7.40637 55.3747 7.36225 56.1847 7.7982C56.9947 8.23415 57.4999 9.07975 57.4999 9.99965C57.4999 12.702 57.1632 14.9168 56.3837 16.866C55.7277 18.5055 54.8062 19.8372 53.7039 21.0492C53.2384 29.457 50.8047 36.0597 47.0839 41.062C43.2274 46.2467 38.0964 49.567 32.6877 51.4265C27.2947 53.2802 21.5965 53.6945 16.4917 53.0667C11.4203 52.4432 6.73255 50.7642 3.46507 48.223C2.57027 47.527 2.25573 46.316 2.69872 45.2725C3.14172 44.229 4.23135 43.6142 5.35355 43.7747C8.56847 44.234 11.6632 43.503 14.2079 42.458C13.707 42.1855 13.2347 41.8905 12.7956 41.5865C10.4768 39.9812 8.60595 37.802 7.76387 36.1177C7.4154 35.421 7.4118 34.6012 7.75415 33.9015C7.93075 33.5402 8.189 33.2325 8.50255 32.9977C5.11687 30.2035 3.74992 26.3387 3.74992 23.7496C3.74992 22.9798 4.10462 22.2529 4.71142 21.7791C4.96657 21.5799 5.25432 21.4348 5.55765 21.3474C5.3043 20.6055 5.1077 19.856 4.95785 19.1304C4.29342 15.9132 4.3524 12.2821 5.07457 9.39332C5.3217 8.40477 6.14405 7.66514 7.15317 7.52379C8.16227 7.38247 9.1562 7.86772 9.6654 8.75034C12.3592 13.4195 17.3278 16.2736 21.9521 17.9642C24.1262 18.759 26.1397 19.2655 27.6489 19.5769C27.9747 16.5255 28.8267 14.009 30.1344 12.0103C31.8597 9.37329 34.2659 7.81312 36.8499 7.11745C41.3067 5.9177 46.2519 7.28455 49.4569 9.79562ZM26.8709 24.5211C25.1582 24.1772 22.8042 23.5994 20.2352 22.6602C16.8422 21.4197 12.9021 19.4854 9.60175 16.4893C9.66082 17.0406 9.74467 17.5873 9.85452 18.1191C10.4076 20.7975 11.4354 22.2975 12.368 22.7637C13.5085 23.334 14.037 24.6712 13.5946 25.8672C12.9956 27.4865 11.4202 27.6192 9.98872 27.2615C11.14 28.9875 13.2094 30.7085 16.6609 31.2837C17.8514 31.4822 18.7301 32.5027 18.7496 33.7095C18.7691 34.9162 17.9237 35.9645 16.7402 36.2012L14.5641 36.6365C14.897 36.9257 15.2574 37.2095 15.6417 37.4755C17.384 38.6817 19.1333 39.202 20.6436 38.8245C21.7747 38.5417 22.9511 39.0782 23.479 40.118C24.0069 41.1575 23.7461 42.424 22.8504 43.1702C21.2406 44.5102 19.3606 45.5855 17.4764 46.4777C16.5918 46.8967 15.6033 47.3102 14.5297 47.6742C15.3554 47.8505 16.2146 47.995 17.1019 48.1042C21.5283 48.6485 26.4552 48.2815 31.0622 46.698C35.6534 45.1197 39.8972 42.3462 43.0722 38.078C46.2424 33.8155 48.4549 27.9167 48.7517 19.9073C48.7749 19.2767 49.0359 18.6782 49.4822 18.232C50.6062 17.1079 51.5352 15.8194 51.9922 14.2857C51.1924 14.5351 50.2919 14.7509 49.2194 14.9559C48.4057 15.1115 47.5679 14.8539 46.9822 14.2682C45.0709 12.3568 41.2909 11.0999 38.1497 11.9455C36.6714 12.3435 35.3277 13.2051 34.3184 14.7476C33.2882 16.3226 32.4999 18.7761 32.4999 22.4997C32.4999 23.2072 32.2002 23.8815 31.6752 24.3555C30.4302 25.4792 28.3349 24.8151 26.8709 24.5211Z" fill="white"/>
</svg>
